{"title":"Star Trek Continues Pilgrim of Eternity bloopers WEBrip 480px264","uid":12360500,"size":37170230,"categoryP":"video","categoryS":"tv_shows","magnet":"?xt=urn:btih:ca0d6cce6672a3224d0e2ce980d4ef11398cad5c&amp;dn=Star+Trek+Continues+Pilgrim+of+Eternity+bloopers+WEBrip+480px264&amp;tr=udp%3A%2F%2Ftracker.openbittorrent.com%3A80&amp;tr=udp%3A%2F%2Fopen.demonii.com%3A1337&amp;tr=udp%3A%2F%2Ftracker.coppersurfer.tk%3A6969&amp;tr=udp%3A%2F%2Fexodus.desync.com%3A6969","seeders":0,"leechers":0,"uploader":"F1_Dance","files":1,"time":1441528757,"description":"&quot;Pilgrim of Eternity&quot; behind-the-scenes bloopers\n\nGag reel for STAR TREK CONTINUES: Episode 1 &quot;Pilgrim of Eternity&quot;.\n\n\nGeneral\nComplete name : Star.Trek.Continues.Pilgrim.of.Eternity.behind-the-scenes.bloopers.WEBRip.480p.x264.mp4\nFormat : MPEG-4\nFormat profile : Base Media / Version 2\nCodec ID : mp42\nFile size : 35.4 MiB\nDuration : 5mn 44s\nOverall bit rate mode : Variable\nOverall bit rate : 863 Kbps\nEncoded date : UTC 2015-08-27 23:24:36\nTagged date : UTC 2015-08-27 23:24:36\n\nVideo\nID : 1\nFormat : AVC\nFormat/Info : Advanced Video Codec\nFormat profile : &lt;a class=&quot;__cf_email__&quot; href=&quot;/cdn-cgi/l/email-protection&quot; data-cfemail=&quot;db93b2bcb39b97e8f5ea&quot;&gt;[email&amp;#160;protected]&lt;/a&gt;&lt;script data-cfhash='f9e31' type=&quot;text/javascript&quot;&gt;\n/* &lt;![CDATA[ */!function(){try{var t=&quot;currentScript&quot;in document?document.currentScript:function(){for(var t=document.getElementsByTagName(&quot;script&quot;),e=t.length;e--;)if(t[e].getAttribute(&quot;data-cfhash&quot;))return t[e]}();if(t&amp;&amp;t.previousSibling){var e,r,n,i,c=t.previousSibling,a=c.getAttribute(&quot;data-cfemail&quot;);if(a){for(e=&quot;&quot;,r=parseInt(a.substr(0,2),16),n=2;a.length-n;n+=2)i=parseInt(a.substr(n,2),16)^r,e+=String.fromCharCode(i);e=document.createTextNode(e),c.parentNode.replaceChild(e,c)}t.parentNode.removeChild(t);}}catch(u){}}()/* ]]&gt; */&lt;/script&gt;\nFormat settings, CABAC : Yes\nFormat settings, ReFrames : 4 frames\nCodec ID : avc1\nCodec ID/Info : Advanced Video Coding\nDuration : 5mn 44s\nBit rate : 750 Kbps\nWidth : 640 pixels\nHeight : 480 pixels\nDisplay aspect ratio : 4:3\nFrame rate mode : Constant\nFrame rate : 23.976 fps\nColor space : YUV\nChroma subsampling : 4:2:0\nBit depth : 8 bits\nScan type : Progressive\nBits/(Pixel*Frame) : 0.102\nStream size : 30.7 MiB (87%)\nWriting library : x264 core 148 r11 73ae2d1\nEncoding settings : cabac=1 / ref=3 / deblock=1:0:0 / analyse=0x3:0x113 / me=hex / subme=7 / psy=1 / psy_rd=1.00:0.00 / mixed_ref=1 / me_range=16 / chroma_me=1 / trellis=1 / 8x8dct=1 / cqm=0 / deadzone=21,11 / fast_pskip=1 / chroma_qp_offset=-2 / threads=15 / lookahead_threads=2 / sliced_threads=0 / nr=0 / decimate=1 / interlaced=0 / bluray_compat=0 / stitchable=1 / constrained_intra=0 / bframes=3 / b_pyramid=2 / b_adapt=1 / b_bias=0 / direct=1 / weightb=1 / open_gop=0 / weightp=2 / keyint=infinite / keyint_min=23 / scenecut=40 / intra_refresh=0 / rc_lookahead=40 / rc=2pass / mbtree=1 / bitrate=750 / ratetol=1.0 / qcomp=0.60 / qpmin=5 / qpmax=69 / qpstep=4 / cplxblur=20.0 / qblur=0.5 / vbv_maxrate=825 / vbv_bufsize=900 / nal_hrd=none / filler=0 / ip_ratio=1.40 / aq=1:1.00\nEncoded date : UTC 2015-08-27 23:24:36\nTagged date : UTC 2015-08-27 23:24:36\nColor range : Limited\nColor primaries : BT.601 NTSC\nTransfer characteristics : BT.601\nMatrix coefficients : BT.601\n\nAudio\nID : 2\nFormat : AAC\nFormat/Info : Advanced Audio Codec\nFormat profile : LC\nCodec ID : 40\nDuration : 5mn 44s\nBit rate mode : Variable\nBit rate : 112 Kbps\nChannel(s) : 2 channels\nChannel positions : Front: L R\nSampling rate : 48.0 KHz\nCompression mode : Lossy\nStream size : 4.60 MiB (13%)\nEncoded date : UTC 2015-08-27 23:24:36\nTagged date : UTC 2015-08-27 23:24:36","torrent":{"xt":"urn:btih:ca0d6cce6672a3224d0e2ce980d4ef11398cad5c","amp;dn":"Star+Trek+Continues+Pilgrim+of+Eternity+bloopers+WEBrip+480px264","amp;tr":["udp%3A%2F%2Ftracker.openbittorrent.com%3A80","udp%3A%2F%2Fopen.demonii.com%3A1337","udp%3A%2F%2Ftracker.coppersurfer.tk%3A6969","udp%3A%2F%2Fexodus.desync.com%3A6969"],"infoHash":"ca0d6cce6672a3224d0e2ce980d4ef11398cad5c","infoHashBuffer":{"type":"Buffer","data":[202,13,108,206,102,114,163,34,77,14,44,233,128,212,239,17,57,140,173,92]},"announce":[],"urlList":[]}}